<?xml version="1.0" standalone="no"?>
<!DOCTYPE svg PUBLIC "-//W3C//DTD SVG 20010904//EN"
 "http://www.w3.org/TR/2001/REC-SVG-20010904/DTD/svg10.dtd">
<svg version="1.0" xmlns="http://www.w3.org/2000/svg"
 width="600.000000pt" height="600.000000pt" viewBox="0 0 600.000000 600.000000"
 preserveAspectRatio="xMidYMid meet">
<metadata>
Created by potrace 1.14, written by Peter Selinger 2001-2017
</metadata>
<g transform="translate(0.000000,600.000000) scale(0.100000,-0.100000)"
fill="#000000" stroke="none">
<path d="M3450 5566 c-9 -9 -17 -12 -65 -20 -31 -6 -95 -35 -95 -44 0 -4 -10
-9 -22 -9 -13 -1 -24 -7 -26 -13 -2 -5 -8 -8 -13 -4 -5 3 -9 1 -9 -5 0 -5 -8
-8 -17 -7 -10 2 -20 -1 -23 -5 -3 -5 -15 -10 -25 -12 -11 -2 -27 -7 -35 -10
-8 -3 -22 -6 -30 -6 -40 -2 -101 -11 -110 -16 -6 -3 -10 -3 -10 2 0 4 -20 9
-45 9 -25 1 -53 5 -63 9 -20 9 -40 15 -64 17 -10 1 -18 5 -18 8 0 3 -15 11
-32 19 -18 7 -54 24 -79 36 -45 22 -106 41 -121 37 -5 -1 -8 2 -8 7 0 5 -47 9
-105 9 -58 0 -105 -3 -105 -7 0 -4 -14 -8 -30 -9 -35 -1 -90 -23 -90 -35 0 -5
-5 -5 -11 -1 -6 3 -15 1 -19 -5 -4 -7 -13 -13 -21 -15 -23 -4 -79 -42 -72 -49
3 -4 1 -7 -5 -7 -14 0 -82 -65 -82 -79 0 -6 -5 -11 -10 -11 -6 0 -15 -11 -20
-25 -5 -14 -14 -25 -20 -25 -6 0 -9 -4 -6 -8 3 -5 -8 -25 -24 -44 -16 -19 -27
-38 -24 -41 3 -3 -4 -8 -15 -12 -12 -3 -19 -11 -16 -16 4 -5 2 -9 -3 -9 -4 0
-24 -13 -42 -30 -18 -16 -40 -30 -48 -30 -9 0 -13 -3 -9 -6 7 -7 -58 -43 -85
-47 -9 -2 -23 -9 -32 -16 -9 -7 -24 -10 -37 -6 -13 4 -19 3 -16 -2 4 -6 -8
-10 -26 -11 -17 0 -33 -6 -35 -11 -2 -6 -7 -9 -12 -6 -13 8 -124 8 -142 1 -9
-4 -21 -5 -27 -2 -5 4 -12 2 -16 -4 -3 -5 -13 -10 -21 -10 -8 0 -31 -7 -52
-16 -20 -8 -38 -14 -38 -12 -1 2 -11 -6 -23 -16 -12 -11 -24 -17 -27 -13 -3 3
-16 -5 -29 -19 -12 -13 -25 -24 -29 -24 -12 0 -36 -27 -36 -40 0 -6 -4 -9 -8
-6 -5 3 -15 -4 -23 -16 -8 -11 -20 -26 -27 -34 -6 -7 -12 -16 -12 -19 0 -4 -9
-20 -21 -36 -11 -16 -17 -34 -14 -39 4 -6 1 -9 -5 -8 -7 2 -14 -5 -15 -15 -2
-10 -7 -26 -11 -35 -10 -24 -15 -44 -16 -69 0 -13 -3 -23 -7 -23 -3 0 -6 -31
-7 -69 0 -46 4 -68 10 -64 6 4 2 -3 -8 -15 -11 -12 -16 -22 -12 -22 4 0 2 -10
-5 -21 -6 -13 -7 -19 -1 -15 6 3 -1 -24 -14 -60 -13 -37 -24 -68 -24 -70 0 -1
-7 -10 -16 -18 -8 -9 -16 -25 -17 -36 -1 -11 -7 -20 -14 -20 -7 0 -13 -6 -13
-14 0 -8 -7 -17 -16 -20 -8 -3 -13 -10 -9 -15 3 -5 -4 -12 -15 -16 -11 -4 -18
-10 -15 -15 3 -4 -8 -14 -24 -21 -16 -7 -27 -17 -25 -21 3 -4 -1 -8 -9 -8 -8
0 -29 -13 -46 -29 -16 -15 -33 -26 -36 -22 -4 3 -11 -2 -16 -12 -6 -9 -14 -17
-19 -17 -12 0 -79 -67 -100 -100 -8 -12 -20 -28 -26 -34 -12 -13 -28 -48 -26
-58 1 -5 -3 -8 -9 -8 -5 0 -8 -4 -4 -9 3 -5 1 -12 -4 -15 -7 -5 -22 -51 -37
-118 -1 -5 -3 -11 -4 -15 -5 -16 -6 -148 -1 -158 3 -5 7 -16 8 -22 7 -31 12
-48 13 -48 1 0 3 -10 6 -23 5 -28 64 -144 78 -154 6 -4 8 -8 3 -8 -4 0 -1 -16
7 -35 9 -20 15 -38 16 -40 0 -3 0 -6 1 -7 11 -27 18 -210 8 -223 -3 -5 -7 -17
-7 -25 -1 -24 -7 -44 -16 -59 -6 -9 -5 -12 1 -8 6 4 -11 -37 -38 -90 -27 -53
-47 -98 -45 -101 3 -2 -2 -12 -11 -20 -10 -10 -12 -17 -5 -20 8 -2 6 -12 -5
-28 -17 -27 -26 -185 -12 -214 4 -8 17 -48 29 -88 13 -39 27 -72 32 -72 5 0 6
-4 3 -10 -3 -5 -1 -10 5 -10 6 0 8 -4 5 -10 -3 -5 -2 -10 4 -10 5 0 13 -9 16
-20 6 -19 125 -148 125 -136 0 5 64 -34 87 -54 7 -5 19 -10 28 -10 8 0 14 -3
13 -7 -3 -10 60 -73 73 -73 5 0 9 -7 9 -15 0 -9 7 -18 15 -21 8 -4 13 -10 10
-14 -2 -4 6 -19 20 -34 13 -14 22 -26 19 -26 -2 0 2 -13 10 -29 9 -16 12 -31
9 -35 -4 -3 -1 -6 6 -6 7 0 11 -6 8 -14 -3 -8 -3 -17 1 -20 7 -8 11 -27 17
-76 7 -54 11 -69 18 -76 3 -4 3 -14 -2 -23 -9 -17 -7 -36 13 -131 10 -45 79
-174 105 -197 14 -13 22 -23 17 -23 -6 0 5 -12 23 -28 19 -15 45 -37 60 -49
14 -13 32 -23 39 -23 6 0 12 -5 12 -12 0 -6 3 -8 7 -5 3 4 15 0 25 -10 10 -9
18 -13 18 -9 0 3 14 -1 31 -9 16 -9 47 -18 67 -21 20 -3 48 -7 62 -9 14 -2 26
-4 28 -5 1 -1 23 -2 50 -2 26 0 51 -3 57 -6 5 -3 21 -6 35 -7 14 -1 36 -5 50
-10 35 -11 187 -85 175 -85 -6 0 9 -13 33 -28 23 -16 39 -32 35 -35 -3 -4 1
-7 11 -7 9 0 15 -4 12 -9 -3 -5 1 -11 9 -15 8 -3 15 -12 15 -21 0 -8 4 -15 8
-15 5 0 15 -12 23 -27 8 -16 17 -30 20 -33 4 -3 15 -20 26 -39 10 -18 22 -32
27 -30 5 2 13 -6 17 -19 5 -13 13 -21 18 -18 5 3 11 -3 14 -14 3 -11 12 -20
21 -20 9 0 16 -4 16 -10 0 -5 7 -10 15 -10 9 0 18 -7 22 -16 3 -8 11 -13 18
-10 8 3 16 -2 19 -11 4 -9 9 -13 13 -10 3 4 12 2 19 -3 6 -6 22 -13 33 -15 12
-2 35 -11 52 -19 19 -9 27 -10 22 -3 -4 8 -1 7 9 -1 19 -15 215 -16 224 -1 3
5 15 9 28 9 12 0 26 3 30 8 4 4 11 8 14 8 29 6 52 18 52 28 0 6 5 4 10 -4 5
-8 10 -10 10 -4 0 15 74 54 100 54 12 0 20 7 20 16 0 14 3 14 15 4 8 -7 15 -8
15 -3 0 12 3 13 138 17 68 3 112 0 112 -6 0 -5 5 -6 10 -3 6 4 18 1 27 -7 14
-11 16 -11 8 2 -7 12 -6 13 7 3 8 -7 18 -10 21 -6 4 3 7 1 7 -6 0 -7 4 -10 9
-6 5 3 15 -1 23 -8 7 -8 19 -12 26 -9 6 2 12 -1 12 -7 0 -6 6 -11 14 -11 8 0
16 -4 18 -9 2 -5 10 -11 18 -13 8 -2 17 -6 20 -10 3 -4 17 -9 30 -11 29 -5 57
-14 84 -28 14 -8 16 -7 11 3 -6 10 -5 11 6 1 17 -17 189 -18 189 -2 0 8 4 8
14 0 10 -9 16 -8 26 4 7 8 16 12 21 9 5 -2 22 2 39 11 17 9 35 13 40 10 6 -3
10 -1 10 4 0 6 7 11 15 11 8 0 15 5 15 11 0 5 5 7 10 4 6 -3 10 -2 10 4 0 5 9
13 20 16 25 8 140 118 140 134 0 6 5 11 11 11 6 0 9 7 5 15 -3 8 -2 14 2 12 4
-1 8 2 9 7 0 5 8 13 17 18 9 5 16 16 16 23 0 8 5 15 10 15 6 0 10 5 10 11 0 6
15 25 33 42 17 16 31 35 29 41 -2 6 -1 8 3 4 4 -4 13 -2 21 5 34 30 44 37 44
30 0 -4 7 1 16 12 8 11 17 19 20 17 2 -1 25 6 51 18 25 11 60 23 77 26 16 3
36 10 43 16 7 6 13 6 13 1 0 -5 7 -10 15 -10 8 0 15 4 15 9 0 4 30 8 67 7 41
-1 69 3 71 9 2 7 11 8 25 3 15 -6 36 -2 68 13 26 11 53 22 60 24 8 2 21 10 30
18 9 8 19 11 22 7 4 -3 7 -1 7 5 0 7 5 12 10 12 6 0 20 9 32 20 12 11 28 20
37 20 8 0 11 3 8 7 -4 3 2 13 14 21 11 8 24 25 30 39 5 13 13 22 18 19 5 -3
12 5 15 19 4 14 11 25 16 25 6 0 10 9 10 20 0 11 4 20 9 20 7 0 16 19 26 60 0
3 6 21 13 40 6 19 13 51 15 70 2 20 6 41 10 47 4 6 3 14 -2 17 -5 4 -7 21 -4
39 3 17 6 48 7 68 0 21 5 34 10 31 5 -3 7 2 3 10 -3 9 -3 19 1 23 4 4 7 10 8
13 4 30 56 132 67 132 5 0 6 7 3 16 -3 8 -2 12 4 9 9 -6 14 8 11 27 0 5 2 7 7
7 20 -3 32 2 29 14 -1 6 4 11 10 10 7 -2 12 1 10 5 -3 10 49 62 63 62 5 0 10
5 10 10 0 6 7 10 15 10 8 0 15 4 15 9 0 8 37 24 52 22 5 -1 7 2 5 7 -1 4 2 8
6 9 5 1 19 13 32 27 13 14 29 26 35 26 5 0 10 6 10 14 0 8 7 17 16 20 8 3 13
10 10 15 -3 5 0 11 8 14 8 3 22 22 31 41 10 20 21 36 26 36 5 0 6 7 3 15 -4 8
-2 15 4 15 5 0 13 17 18 38 9 44 8 41 20 67 13 29 8 238 -6 253 -1 1 -4 7 -5
12 -1 6 -4 13 -5 18 -1 4 -3 12 -4 17 -4 26 -18 55 -25 51 -4 -3 -8 1 -8 8 0
25 -25 76 -34 70 -5 -3 -8 -2 -7 3 1 4 -6 34 -16 66 -11 31 -16 60 -13 64 4 3
2 12 -4 20 -16 19 -12 194 5 221 3 5 7 19 10 33 10 45 32 99 39 92 4 -3 7 1 7
10 0 26 2 31 18 43 8 6 12 16 8 23 -4 6 -1 14 8 17 8 3 12 12 10 19 -3 7 0 16
5 20 6 3 9 11 5 16 -3 5 0 17 7 25 21 25 24 175 5 236 -9 29 -22 71 -28 93 -7
22 -15 42 -18 45 -3 3 -12 19 -20 35 -8 17 -23 38 -33 47 -10 9 -19 20 -20 25
-1 4 -5 7 -10 5 -4 -1 -6 1 -6 5 3 17 -1 36 -7 31 -3 -4 -21 8 -39 25 -54 50
-62 56 -69 50 -3 -4 -6 -2 -6 4 0 6 -8 13 -17 17 -26 8 -57 29 -66 44 -5 7
-13 10 -18 6 -5 -3 -8 -1 -7 4 2 5 -10 23 -27 40 -41 41 -75 82 -68 82 3 0 -2
9 -13 21 -10 12 -17 22 -15 23 2 0 -5 19 -14 41 -22 48 -21 47 -34 115 -15 82
-19 140 -9 140 5 0 4 9 -2 19 -5 11 -10 33 -10 50 0 17 -4 31 -9 31 -6 0 -8 9
-6 20 2 11 0 20 -5 20 -5 0 -7 7 -4 15 4 8 1 15 -5 15 -6 0 -10 3 -9 8 4 13
-35 84 -49 89 -7 3 -13 11 -13 18 0 7 -13 23 -30 36 -16 13 -30 30 -30 37 0 6
-4 12 -10 12 -5 0 -19 8 -29 18 -35 31 -51 43 -51 37 0 -3 -10 3 -22 14 -11
11 -25 18 -30 15 -4 -3 -8 -1 -8 3 0 5 -21 15 -47 23 -27 7 -51 14 -55 15 -5
2 -9 3 -10 4 -4 4 -67 10 -143 15 -90 6 -132 15 -173 38 -20 11 -30 13 -26 6
4 -7 -3 -4 -15 7 -13 11 -25 18 -27 15 -2 -3 -13 3 -24 13 -11 9 -24 17 -29
17 -22 0 -161 154 -161 180 0 5 -4 10 -10 10 -5 0 -10 7 -10 15 0 8 -4 15 -10
15 -5 0 -10 7 -10 16 0 8 -4 12 -10 9 -5 -3 -10 -1 -10 6 0 6 -16 26 -34 44
-19 18 -32 35 -29 39 4 3 -1 6 -9 6 -9 0 -21 7 -28 15 -7 8 -16 12 -21 9 -5
-3 -12 2 -15 10 -3 9 -10 13 -15 10 -5 -3 -9 -2 -9 3 0 9 -32 24 -95 44 -22 7
-46 17 -52 22 -9 6 -13 5 -13 -3 0 -9 -4 -9 -13 -2 -16 13 -175 20 -187 8z"/>
</g>
</svg>
